<svg height='300px' width='300px'  fill="#000000" xmlns="http://www.w3.org/2000/svg" viewBox="0 0 32 32" x="0px" y="0px"><title>red, eye</title><path d="M16,6C7.61,6,.51,15,.21,15.39a1,1,0,0,0,0,1.22C.51,17,7.61,26,16,26s15.49-9,15.79-9.39a1,1,0,0,0,0-1.22C31.49,15,24.39,6,16,6Zm0,18C9.77,24,4,18,2.3,16,4,14,9.76,8,16,8s12,6,13.7,8C28,18,22.24,24,16,24Z"></path><path d="M21,15a1,1,0,0,0,.92-1.39A6.55,6.55,0,0,0,16,10a6,6,0,0,0,0,12,6.55,6.55,0,0,0,5.92-3.61A1,1,0,0,0,21,17a.91.91,0,0,1-1-1A.91.91,0,0,1,21,15Zm-1.58,3.58A4.9,4.9,0,0,1,16,20a4,4,0,0,1,0-8,4.9,4.9,0,0,1,3.42,1.42A2.81,2.81,0,0,0,18,16,2.81,2.81,0,0,0,19.42,18.58Z"></path></svg>